PathFileType	4	(X/Y/Z)	C:/Users/beibeiliu/ov580/test_trc\sequence.34_training_dense_left.trc
DataRate	CameraRate	NumFrames	NumMarkers	Units	OrigDataRate	OrigDataStartFrame	OrigNumFrames
120	120	22	19	mm	120	1	142
Frame#	Time	ThumbCMC			ThumbMCP			ThumbIP			ThumbTip			IndexMCP			IndexPIP			IndexTip			MiddleMCP			MiddlePIP			MiddleTip			RingMCP			RingPIP			RingTip			PinkyMCP			PinkyPIP			PinkyTip			BackHand1			BackHand2			BackHand3	
		X0	Y0	Z0	X1	Y1	Z1	X2	Y2	Z2	X3	Y3	Z3	X4	Y4	Z4	X5	Y5	Z5	X6	Y6	Z6	X7	Y7	Z7	X8	Y8	Z8	X9	Y9	Z9	X10	Y10	Z10	X11	Y11	Z11	X12	Y12	Z12	X13	Y13	Z13	X14	Y14	Z14	X15	Y15	Z15	X16	Y16	Z16	X17	Y17	Z17	X18	Y18	Z18	
0	0	-67.4027	66.7128	44.3153	-55.1829	52.2933	17.7375	-46.903	49.253	-6.73964	-51.3193	52.8525	-34.2216	-40.0201	94.3992	-10.3381	-29.4522	86.024	-29.0142	-18.877	75.3888	-52.9922	-55.7152	98.9112	-25.823	-49.9481	88.783	-49.7444	-49.1065	70.8051	-70.7296	-72.316	102.291	-30.721	-67.3961	97.3665	-48.6474	-62.5286	88.896	-68.1984	-98.1043	90.7738	-30.4241	-93.9945	73.4955	-37.98	-85.0344	50.4943	-34.1704	-91.1794	110.954	13.8346	-107.229	104.858	40.8918	-76.6126	101.59	38.0614	
1	0.00833333	-65.4835	69.4675	43.4249	-50.2949	54.6086	20.3461	-45.2402	53.7581	-2.13303	-42.5642	51.6406	-28.2841	-37.547	93.0803	-11.7626	-28.3428	80.8606	-33.5851	-24.0532	63.6406	-52.748	-50.591	99.5523	-26.6338	-44.7667	92.3877	-46.0463	-42.7941	75.041	-70.5837	-74.3474	104.776	-30.108	-63.6899	97.9421	-47.9718	-56.8756	89.9861	-72.1209	-94.2765	97.6668	-26.3346	-89.1207	78.793	-45.7414	-83.2332	61.9549	-51.6052	-93.0067	110.247	15.7629	-102.589	107.129	39.5427	-72.9573	101.978	37.0102	
2	0.0166667	-63.3264	71.0416	46.1578	-48.3753	56.6886	25.7629	-35.7846	52.6435	-0.59815	-34.1877	50.0619	-18.1825	-28.8971	89.0966	-11.8535	-26.8575	78.0872	-30.6885	-23.3148	56.1685	-43.9223	-48.3772	104.457	-23.0434	-37.894	96.5488	-45.3725	-31.4307	82.4587	-67.2589	-66.4899	106.145	-25.3757	-57.9393	99.7463	-51.5385	-53.2387	93.3449	-71.0987	-91.8271	103.57	-27.4254	-87.4121	93.2102	-47.3119	-79.6361	81.4978	-60.6507	-89.3704	112.867	15.4938	-98.6871	107.571	38.9643	-72.3602	103.576	38.7534	
3	0.025	-53.7745	74.4209	44.7711	-42.5053	60.7387	25.5452	-30.8394	54.8934	4.98701	-24.979	49.1301	-12.3284	-26.8307	92.1567	-11.8757	-20.0624	73.7691	-30.1225	-27.7432	56.8662	-41.8304	-41.6268	108.899	-19.0322	-30.2183	104.189	-45.2444	-24.1445	94.4562	-67.9389	-60.3719	110.422	-26.8417	-54.0227	105.168	-50.3617	-47.4824	98.4805	-65.6798	-84.9478	109.129	-22.7453	-81.5223	108.333	-44.7107	-79.684	107.159	-63.4493	-82.117	114.825	14.0444	-96.943	112.298	36.5717	-65.1965	107.136	37.5898	
4	0.0333333	-54.5397	76.8577	47.7672	-35.5998	61.6618	27.1752	-23.3645	53.4793	10.3262	-15.7616	48.2112	-10.0102	-19.3331	93.5313	-5.26702	-15.6859	78.4163	-25.2917	-21.0817	54.7596	-37.0871	-29.4238	112.585	-19.3276	-19.1712	108.007	-41.7953	-12.566	104.447	-61.4759	-57.92	114.12	-25.775	-44.8454	106.92	-49.1499	-41.2793	95.0615	-67.7021	-83.1841	116.169	-23.1478	-75.1849	117.95	-38.7502	-75.2728	124.363	-57.6081	-76.264	119.399	17.0553	-85.328	114.108	40.3202	-60.054	108.388	38.9511	
5	0.0416667	-47.7426	75.6219	47.8145	-33.0803	60.0349	30.971	-19.7872	53.8913	10.194	-11.3562	45.7307	-7.37206	-13.8553	90.2981	-0.502302	-13.7262	74.9413	-26.1918	-17.1819	54.5088	-36.0105	-26.7146	110.896	-17.0317	-14.2793	107.556	-35.4114	-7.74587	105.63	-59.1411	-50.5903	113.577	-22.5832	-41.1291	102.719	-46.8339	-39.2922	87.9322	-60.8298	-73.2715	119.633	-17.1663	-68.0802	121.78	-31.794	-67.4857	129.205	-51.1094	-68.317	117.235	25.0354	-81.7527	114.247	44.0101	-52.0182	105.036	45.1426	
6	0.05	-44.7971	71.643	52.5117	-30.6383	55.0375	34.105	-23.1046	48.917	16.5165	-13.0054	43.2201	-2.37998	-13.8954	87.136	-4.49985	-9.36734	73.6337	-19.2391	-13.4407	56.3334	-37.4144	-25.5756	106.525	-15.8985	-14.6272	102.318	-31.3169	-4.81289	100.816	-57.4747	-45.2054	106.59	-16.4535	-41.2159	92.5574	-40.651	-41.5464	66.6112	-51.4169	-71.823	117.405	-15.3733	-64.9961	120.229	-35.063	-61.6093	125.592	-50.2744	-65.0517	112.952	27.7875	-80.5368	113.594	47.7803	-51.9693	105.147	48.2935	
7	0.0583333	-49.501	70.734	57.8643	-35.5336	53.1301	38.3336	-21.0589	45.0086	17.0068	-13.7663	36.6342	0.885405	-16.542	86.3149	-3.26519	-10.1285	71.6603	-23.0426	-10.4533	60.9652	-39.9118	-30.3116	100.937	-16.7087	-22.4345	96.919	-34.7913	-10.2496	92.0173	-61.0696	-50.4237	98.3431	-18.9375	-52.7235	78.2449	-39.1782	-56.5176	53.757	-38.6709	-75.0307	110.69	-19.4557	-69.8837	108.084	-33.5076	-65.5757	109.663	-55.948	-72.4969	113.392	24.8721	-82.1072	112.353	46.3131	-51.5154	103.732	48.7505	
8	0.0666667	-53.9602	71.9364	53.4337	-40.5604	54.514	34.7666	-30.9579	46.7191	16.8809	-20.6148	37.3112	-2.81504	-25.4802	90.9529	-3.66911	-15.3442	81.869	-27.4138	-6.05051	70.5753	-45.9434	-42.1938	99.8908	-17.5515	-35.8967	94.4076	-44.1249	-28.0621	87.4116	-65.4479	-63.3277	92.04	-24.1785	-64.868	68.3862	-37.1287	-66.7363	42.4005	-25.6556	-88.1773	102.826	-18.7441	-82.4554	97.5614	-35.5631	-80.7178	95.1774	-57.2154	-78.8861	110.106	21.512	-92.6287	110.115	46.0802	-61.9283	102.7	44.6839	
9	0.075	-65.868	73.6196	51.7556	-46.9828	53.6294	34.4344	-36.4822	45.347	18.3244	-32.3528	38.604	-1.51733	-38.1047	95.826	-6.85857	-32.0192	95.3954	-26.2286	-20.2537	94.0631	-47.6208	-54.6188	97.5875	-22.9688	-47.9861	89.5529	-45.1016	-45.2837	76.2054	-67.1788	-74.7888	87.7519	-26.2973	-79.6005	64.7784	-37.6406	-80.3167	40.5139	-22.432	-99.4908	97.5113	-18.9556	-99.8146	90.1876	-39.9645	-97.0547	86.0076	-57.3493	-95.0976	109.372	18.7822	-102.691	109.117	41.3616	-73.4306	102.705	43.0333	
10	0.0833333	-75.6836	77.1111	47.1659	-60.6715	60.431	29.8398	-48.8491	52.661	11.1043	-39.6432	44.7491	-7.99173	-60.3364	103.147	-12.9881	-50.9223	105.505	-30.2104	-43.5459	112.053	-52.7532	-75.1002	97.7021	-29.3946	-69.4041	85.1876	-48.9984	-71.4375	61.4978	-65.7978	-100.434	86.791	-28.8051	-95.6883	61.8358	-37.655	-92.8513	38.8141	-18.605	-119.414	93.8519	-21.1166	-119.728	87.1229	-41.2911	-118.122	81.1865	-58.5647	-113.938	107.514	16.7507	-119.304	105.975	38.5624	-91.6449	105.909	37.757	
11	0.0916667	-94.384	82.1477	44.5083	-72.8339	67.3858	26.5532	-61.7935	62.1665	6.81591	-57.4235	57.0309	-12.9605	-81.0814	111.293	-17.3088	-74.877	116.255	-36.8828	-71.7963	123.07	-53.3303	-97.6221	98.6967	-30.5448	-93.162	77.907	-52.068	-92.0317	45.752	-51.7897	-119.31	87.4747	-28.4239	-110.027	62.4083	-35.3784	-108.67	42.006	-17.2316	-138.277	92.8151	-27.1249	-138.521	86.589	-39.7506	-141.574	79.9297	-61.1628	-132.919	109.763	13.5402	-140.35	107.137	38.6461	-106.794	107.965	33.6845	
12	0.1	-106.985	89.9347	37.4413	-92.2541	75.4147	18.9516	-76.837	69.2199	0.84131	-69.6283	64.5677	-18.9904	-99.5077	117.684	-22.1636	-94.012	122.332	-39.884	-92.8404	128.84	-56.7367	-114.458	98.283	-34.2815	-111.573	72.6617	-49.6306	-111.054	45.7147	-42.4541	-137.891	87.7862	-31.1	-124.061	61.4985	-33.2124	-121.612	45.6253	-12.7489	-160.036	94.0834	-22.8968	-158.731	88.8494	-39.5499	-159.053	84.4298	-62.8103	-145.309	110.531	12.0229	-153.551	108.213	40.8099	-125.373	111.79	32.8299	
13	0.108333	-118.351	91.0575	39.0801	-100.667	79.2455	15.5996	-90.6005	75.4029	-5.04847	-85.2283	69.4317	-24.8706	-119.928	119.068	-22.2448	-114.205	123.401	-41.4465	-110.617	129.783	-65.8339	-132.382	101.323	-37.8222	-126.107	77.1517	-51.3831	-123.474	50.4386	-44.7316	-150.439	89.7312	-32.5724	-142.406	66.8691	-35.9657	-134.312	49.1608	-16.9424	-172.623	97.8598	-26.4442	-175.067	89.9742	-44.3809	-173.767	87.4776	-62.0622	-160.823	112.15	11.9683	-166.107	112.098	39.0785	-139.477	116.774	34.0939	
14	0.116667	-127.432	98.22	39.0049	-112.573	86.7247	18.193	-102.077	83.2741	-3.78366	-98.5295	79.8103	-24.3457	-134.03	123.39	-26.1789	-129.594	123.758	-46.2718	-123.98	122.029	-69.8841	-147.595	111.905	-34.1576	-140.981	93.5819	-55.9772	-136.069	60.4535	-58.2175	-164.86	96.6864	-31.5148	-155.01	72.9013	-40.3513	-144.286	55.5664	-27.2467	-190.142	97.7763	-23.7264	-189.728	93.4553	-38.0124	-189.62	87.9234	-62.11	-178.802	114.399	16.3353	-177.204	111.458	40.2448	-153.25	120.227	32.0649	
15	0.125	-138.956	110.378	39.9155	-122.023	105.06	16.8349	-111.099	105.605	-6.82882	-105.215	100.156	-22.1006	-146.423	129.413	-25.5401	-137.449	124.537	-47.9686	-131.851	109.183	-70.878	-168.069	121.996	-32.0145	-157.199	113.607	-60.7206	-149.96	94.7982	-77.1274	-180.587	104.623	-29.6307	-166.691	89.1816	-46.599	-151.701	67.7984	-44.185	-200.431	94.3681	-20.7088	-196.709	91.2038	-37.6807	-195.49	87.3084	-58.914	-189.321	114.391	15.3674	-190.73	111.985	42.3951	-167.187	128.42	31.1445	
16	0.133333	-151.195	122.765	44.4308	-131.049	125.333	19.0217	-122.481	126.558	0.606413	-115.515	125.73	-22.4181	-158.91	135.075	-22.5372	-144.565	122.207	-44.9641	-130.264	106.358	-55.3021	-181.794	127.045	-28.7909	-175.558	126.582	-56.7572	-167.394	120.196	-79.6604	-190.155	113.251	-28.3238	-182.603	104.137	-52.6789	-162.995	90.1026	-65.1468	-205.103	93.6102	-20.3214	-204.18	91.2558	-35.7516	-203.976	89.1244	-55.2641	-201.04	112.128	20.8147	-201.681	112.264	42.0561	-183.901	130.821	31.9446	
17	0.141667	-157.034	127.447	45.982	-138.9	129.081	27.375	-128.336	134.113	6.67905	-119.434	135.95	-15.4322	-160.93	140.787	-17.7585	-146.499	124.269	-38.3443	-131.751	106.947	-44.1287	-186.674	135.416	-30.0307	-180.44	137.668	-50.9652	-176.28	134.989	-79.9583	-203.864	120.632	-23.8311	-202.608	122.246	-46.2057	-189.502	122.252	-69.1686	-211.85	101.614	-13.9607	-217.17	100.326	-34.3862	-220.075	102.455	-48.8867	-205.734	116.13	20.8048	-208.881	110.521	43.0995	-191.595	130.546	36.3718	
18	0.15	-158.355	126.902	47.0519	-142.336	127.646	29.28	-129.39	135.36	5.09056	-126.09	135.114	-13.2446	-164.979	141.941	-14.2816	-150.629	129.478	-35.3112	-140.323	107.441	-44.8776	-190.023	141.679	-22.5348	-186.855	143.938	-50.4067	-184.671	145.532	-69.8	-209.42	128.404	-15.5495	-214.341	135.236	-39.235	-212.746	143.463	-61.8881	-219.864	109.172	-7.07547	-228.184	116.198	-24.7892	-235.759	122.316	-35.6389	-207.514	118.978	26.2804	-212.21	112.888	49.7877	-192.131	129.731	40.427	
19	0.158333	-161.482	121.318	47.8688	-140.975	125.68	28.9454	-133.595	130.802	7.34645	-126.461	133.074	-13.2007	-170.239	143.153	-17.5028	-160.397	134.099	-34.4786	-150.898	112.79	-49.6741	-194.262	146.158	-21.8791	-188.332	150.592	-42.611	-190.612	152.663	-65.9394	-217.277	135.552	-13.0748	-218.966	143.877	-27.9486	-224.151	157.242	-47.4767	-227.274	115.129	2.98458	-237.802	123.948	-8.56464	-249.946	134.518	-17.5025	-212.318	124.638	28.8268	-210.927	113.484	54.8076	-188.338	133.524	46.0309	
20	0.166667	-167.941	117.062	49.9749	-148.364	123.754	25.2727	-140.925	130.064	3.61549	-135.468	131.815	-17.0971	-179.617	145.845	-10.299	-172.788	137.309	-37.1196	-165.022	122.316	-56.1813	-204.595	146.964	-14.8191	-198.735	154.986	-36.8865	-201.883	160.469	-62.5359	-224.45	137.976	-4.69529	-232.109	152.447	-22.6045	-233.926	164.42	-35.2332	-235.687	120.196	9.40078	-247.39	130.135	1.19026	-257.264	144.387	-2.3233	-217.414	123.759	33.0288	-216.1	116.643	55.473	-196.789	133.593	45.345	
21	0.175	-175.005	121.458	49.5393	-159.284	122.408	30.3585	-150.298	131.684	7.18752	-146.707	132.758	-10.5331	-190.975	151.142	-7.77352	-183.992	150.643	-30.1728	-178.806	144.921	-52.0517	-213.483	154.29	-10.7617	-216.241	161.128	-32.5429	-218.811	169.888	-51.9804	-234.244	138.89	1.73651	-242.272	154.637	-15.0165	-249.342	166.188	-26.257	-246.109	122.788	12.2255	-258.743	133.092	5.00352	-269.558	141.497	3.56422	-226.625	124.281	36.571	-225	113.093	61.8899	-204.707	132.216	50.628	
